<svg width="23" height="22" viewBox="0 0 23 22" fill="none" xmlns="http://www.w3.org/2000/svg">
<path d="M18.8929 0H4.10714C3.01786 0 1.97319 0.413902 1.20295 1.15065C0.432716 1.8874 0 2.88665 0 3.92857V18.0714C0 19.1133 0.432716 20.1126 1.20295 20.8493C1.97319 21.5861 3.01786 22 4.10714 22H18.8929C19.9821 22 21.0268 21.5861 21.797 20.8493C22.5673 20.1126 23 19.1133 23 18.0714V3.92857C23 2.88665 22.5673 1.8874 21.797 1.15065C21.0268 0.413902 19.9821 0 18.8929 0ZM4.10714 1.57143H18.8929C19.5464 1.57143 20.1732 1.81977 20.6354 2.26182C21.0975 2.70387 21.3571 3.30342 21.3571 3.92857V8.32071L19.8129 6.84357C19.3508 6.40216 18.7245 6.15422 18.0714 6.15422C17.4184 6.15422 16.7921 6.40216 16.33 6.84357L9.79964 13.1293L7.33536 11.2279C6.89505 10.8832 6.34361 10.6949 5.77464 10.6949C5.20568 10.6949 4.65424 10.8832 4.21393 11.2279L1.64286 13.2471V3.92857C1.64286 3.30342 1.90249 2.70387 2.36463 2.26182C2.82677 1.81977 3.45357 1.57143 4.10714 1.57143ZM18.8929 20.4286H4.10714C3.45357 20.4286 2.82677 20.1802 2.36463 19.7382C1.90249 19.2961 1.64286 18.6966 1.64286 18.0714V15.2979L5.24071 12.4221C5.3877 12.3066 5.57206 12.2434 5.76232 12.2434C5.95259 12.2434 6.13695 12.3066 6.28393 12.4221L9.34786 14.7793C9.50524 14.9001 9.70358 14.9612 9.90507 14.9511C10.1066 14.9409 10.2971 14.8602 10.4404 14.7243L17.4882 7.975C17.5646 7.90136 17.6554 7.8429 17.7555 7.80301C17.8556 7.76312 17.963 7.74259 18.0714 7.74259C18.1799 7.74259 18.2872 7.76312 18.3873 7.80301C18.4874 7.8429 18.5783 7.90136 18.6546 7.975L21.3571 10.5364V18.0714C21.3571 18.6966 21.0975 19.2961 20.6354 19.7382C20.1732 20.1802 19.5464 20.4286 18.8929 20.4286Z" fill="black"/>
<path d="M6.57143 8.64286C7.05882 8.64286 7.53526 8.50461 7.94051 8.24561C8.34576 7.9866 8.66162 7.61846 8.84813 7.18775C9.03465 6.75704 9.08345 6.2831 8.98836 5.82586C8.89328 5.36862 8.65858 4.94862 8.31394 4.61896C7.96931 4.28931 7.53021 4.06481 7.05219 3.97386C6.57416 3.88291 6.07868 3.92959 5.62839 4.108C5.1781 4.28641 4.79323 4.58853 4.52245 4.97616C4.25167 5.36379 4.10714 5.81952 4.10714 6.28571C4.10714 6.91087 4.36677 7.51042 4.82892 7.95247C5.29106 8.39452 5.91786 8.64286 6.57143 8.64286ZM6.57143 5.5C6.73389 5.5 6.89271 5.54608 7.02779 5.63242C7.16287 5.71875 7.26816 5.84146 7.33033 5.98503C7.3925 6.1286 7.40877 6.28659 7.37707 6.439C7.34538 6.59141 7.26715 6.73141 7.15227 6.8413C7.03739 6.95118 6.89102 7.02601 6.73168 7.05633C6.57234 7.08665 6.40718 7.07109 6.25708 7.01162C6.10699 6.95215 5.9787 6.85144 5.88844 6.72223C5.79818 6.59302 5.75 6.44111 5.75 6.28571C5.75 6.07733 5.83654 5.87748 5.99059 5.73013C6.14464 5.58278 6.35357 5.5 6.57143 5.5Z" fill="black"/>
</svg>
