<svg width="18" height="22" viewBox="0 0 18 22" fill="none" xmlns="http://www.w3.org/2000/svg">
<path fill-rule="evenodd" clip-rule="evenodd" d="M0.828469 0.824188C1.35893 0.296469 2.07839 0 2.82857 0H11.0571C11.2617 0 11.458 0.0808553 11.6026 0.224779L17.7741 6.36431C17.9187 6.50824 18 6.70344 18 6.90698V19.186C18 19.9324 17.702 20.6481 17.1715 21.1758C16.6411 21.7035 15.9216 22 15.1714 22H2.82857C2.07839 22 1.35893 21.7035 0.828469 21.1758C0.298009 20.6481 0 19.9324 0 19.186V2.81395C0 2.06765 0.298009 1.35191 0.828469 0.824188ZM2.82857 1.53488C2.48758 1.53488 2.16055 1.66964 1.91943 1.90951C1.67832 2.14939 1.54286 2.47472 1.54286 2.81395V19.186C1.54286 19.5253 1.67832 19.8506 1.91943 20.0905C2.16055 20.3304 2.48758 20.4651 2.82857 20.4651H15.1714C15.5124 20.4651 15.8394 20.3304 16.0806 20.0905C16.3217 19.8506 16.4571 19.5253 16.4571 19.186V7.67442H11.0571C10.6311 7.67442 10.2857 7.33082 10.2857 6.90698V1.53488H2.82857ZM11.8286 2.62021L15.3662 6.13953H11.8286V2.62021ZM4.11429 7.93023C4.11429 7.50639 4.45967 7.16279 4.88571 7.16279H6.94286C7.36891 7.16279 7.71429 7.50639 7.71429 7.93023C7.71429 8.35408 7.36891 8.69767 6.94286 8.69767H4.88571C4.45967 8.69767 4.11429 8.35408 4.11429 7.93023ZM4.11429 12.0233C4.11429 11.5994 4.45967 11.2558 4.88571 11.2558H13.1143C13.5403 11.2558 13.8857 11.5994 13.8857 12.0233C13.8857 12.4471 13.5403 12.7907 13.1143 12.7907H4.88571C4.45967 12.7907 4.11429 12.4471 4.11429 12.0233ZM4.11429 16.1163C4.11429 15.6924 4.45967 15.3488 4.88571 15.3488H13.1143C13.5403 15.3488 13.8857 15.6924 13.8857 16.1163C13.8857 16.5401 13.5403 16.8837 13.1143 16.8837H4.88571C4.45967 16.8837 4.11429 16.5401 4.11429 16.1163Z" fill="black"/>
</svg>
