<svg width="9" height="11" viewBox="0 0 9 11" fill="none" xmlns="http://www.w3.org/2000/svg">
<path d="M7.55763 1.44V0.599999H6.76562V1.44H4.55763V2.088H6.76562V4.176C6.21363 3.3 5.40963 2.856 4.34163 2.856C3.48963 2.856 2.75763 3.156 2.14563 3.768C1.54563 4.38 1.24563 5.124 1.24563 6C1.24563 6.876 1.54563 7.62 2.14563 8.232C2.75763 8.844 3.48963 9.144 4.34163 9.144C5.40963 9.144 6.21363 8.7 6.76562 7.824V9H7.55763V2.088H8.39763V1.44H7.55763ZM2.72163 7.692C2.26562 7.224 2.03763 6.66 2.03763 6C2.03763 5.34 2.26562 4.776 2.72163 4.32C3.17763 3.852 3.74163 3.624 4.40163 3.624C5.06163 3.624 5.62563 3.852 6.08163 4.32C6.53763 4.776 6.76562 5.34 6.76562 6C6.76562 6.66 6.53763 7.224 6.08163 7.692C5.62563 8.148 5.06163 8.376 4.40163 8.376C3.74163 8.376 3.17763 8.148 2.72163 7.692Z" fill="black"/>
<path d="M0.765625 10.2H8.51763V10.8H0.765625V10.2Z" fill="black"/>
</svg>
