<svg width="74" height="85" viewBox="0 0 74 85" fill="none" xmlns="http://www.w3.org/2000/svg">
<ellipse cx="38.9828" cy="78.8136" rx="34.4633" ry="5.9322" fill="#C4CFD6"/>
<path d="M37.1593 0.489096L12.6348 10.2989L68.5434 40.7054L70.9705 35.5478C71.8683 33.64 71.4729 31.3741 69.982 29.8833L41.4733 1.37458C40.3418 0.243125 38.645 -0.105171 37.1593 0.489096Z" fill="#B7BBBF"/>
<path d="M28.3278 27.4639C24.1429 26.1561 23.7505 22.1237 24.0775 20.271C20.481 19.944 21.4619 24.8483 22.1158 26.81C22.6389 28.3793 26.4751 27.8998 28.3278 27.4639Z" fill="#A3A8AF"/>
<path d="M69.0339 34.9969L40.2192 6.18217C39.7059 5.66748 39.0733 5.28788 38.3776 5.07724C37.6819 4.86659 36.9449 4.83146 36.2324 4.97498L13.9824 9.42492C13.5552 9.51046 13.1629 9.72049 12.8548 10.0285C12.5468 10.3366 12.3368 10.7289 12.2512 11.1561L7.80127 33.4061C7.65801 34.1186 7.69327 34.8555 7.9039 35.5512C8.11453 36.2468 8.49399 36.8795 9.00846 37.3929L37.8229 66.2073C38.2327 66.6173 38.7193 66.9425 39.2549 67.1643C39.7904 67.3862 40.3644 67.5004 40.9441 67.5005C41.5238 67.5005 42.0978 67.3863 42.6333 67.1645C43.1689 66.9427 43.6555 66.6175 44.0654 66.2076L69.0336 41.2394C69.4436 40.8295 69.7688 40.3429 69.9906 39.8074C70.2125 39.2719 70.3267 38.6979 70.3268 38.1182C70.3268 37.5385 70.2126 36.9645 69.9908 36.4289C69.769 35.8934 69.4438 35.4068 69.0339 34.9969ZM25.9973 26.483C25.3426 26.483 24.7026 26.2889 24.1582 25.9251C23.6138 25.5614 23.1895 25.0444 22.9389 24.4395C22.6884 23.8346 22.6228 23.169 22.7506 22.5268C22.8783 21.8847 23.1936 21.2948 23.6565 20.8319C24.1195 20.3689 24.7094 20.0536 25.3515 19.9259C25.9937 19.7981 26.6593 19.8637 27.2642 20.1143C27.869 20.3648 28.3861 20.7891 28.7498 21.3335C29.1136 21.8779 29.3077 22.5179 29.3077 23.1727C29.3077 24.0506 28.9589 24.8926 28.3381 25.5134C27.7173 26.1343 26.8753 26.483 25.9973 26.483Z" fill="#D3D6D9"/>
<rect x="22.6484" y="57.3549" width="10.9821" height="3.34239" rx="1.6712" transform="rotate(-45 22.6484 57.3549)" fill="#1E5B89"/>
<rect x="9.08984" y="68.1591" width="22.9193" height="6.68478" rx="3.34239" transform="rotate(-45 9.08984 68.1591)" fill="#FA7C35"/>
<mask id="mask0_5391:196138" style="mask-type:alpha" maskUnits="userSpaceOnUse" x="10" y="53" width="19" height="19">
<rect x="9.08984" y="68.1591" width="22.9193" height="6.68478" rx="3.34239" transform="rotate(-45 9.08984 68.1591)" fill="#FA7C35"/>
</mask>
<g mask="url(#mask0_5391:196138)">
<rect x="9.76562" y="68.8344" width="22.9193" height="6.68478" rx="3.34239" transform="rotate(-45 9.76562 68.8344)" fill="#F95B03"/>
</g>
<path d="M31.0887 53.6408C30.1434 53.2356 29.1192 51.8964 28.7253 51.2774L30.4135 49.5892L32.6081 52.1215L31.0887 53.6408Z" fill="#18496E"/>
<path fill-rule="evenodd" clip-rule="evenodd" d="M52.1914 50.7709C58.0652 44.8971 58.0652 35.3739 52.1914 29.5001C46.3177 23.6263 36.7944 23.6263 30.9206 29.5001C25.0468 35.3739 25.0468 44.8971 30.9206 50.7709C36.7944 56.6447 46.3177 56.6447 52.1914 50.7709ZM50.6033 49.1836C55.6004 44.1865 55.6004 36.0846 50.6033 31.0875C45.6062 26.0904 37.5043 26.0904 32.5072 31.0875C27.5101 36.0846 27.5101 44.1865 32.5072 49.1836C37.5043 54.1807 45.6062 54.1807 50.6033 49.1836Z" fill="#18496E"/>
<path fill-rule="evenodd" clip-rule="evenodd" d="M52.8657 51.4462C59.1124 45.1995 59.1124 35.0715 52.8657 28.8248C46.6189 22.5781 36.491 22.5781 30.2443 28.8248C23.9976 35.0715 23.9976 45.1995 30.2443 51.4462C36.491 57.6929 46.6189 57.6929 52.8657 51.4462ZM51.1781 49.7581C56.4924 44.4437 56.4924 35.8274 51.1781 30.513C45.8637 25.1986 37.2474 25.1986 31.933 30.513C26.6186 35.8274 26.6186 44.4437 31.933 49.7581C37.2474 55.0725 45.8637 55.0725 51.1781 49.7581Z" fill="#1E5B89"/>
<rect x="32.4844" y="42.3831" width="3.81988" height="18.1444" rx="1.90994" transform="rotate(-90 32.4844 42.3831)" fill="#A9AEB4"/>
<rect x="43.4668" y="49.5453" width="3.81988" height="18.1444" rx="1.90994" transform="rotate(180 43.4668 49.5453)" fill="#A9AEB4"/>
</svg>
