<svg width="22" height="22" viewBox="0 0 22 22" fill="none" xmlns="http://www.w3.org/2000/svg">
<path d="M11 22C4.93729 22 0 17.0708 0 11.0181C0 4.9654 4.93729 0 11 0C17.0627 0 22 4.92916 22 10.9819C22 17.0346 17.0627 22 11 22ZM11 1.44975C5.73597 1.44975 1.41584 5.76277 1.41584 11.0181C1.41584 16.2735 5.69967 20.5502 10.9637 20.5502C16.2277 20.5502 20.5116 16.2735 20.5116 11.0181C20.5116 5.76277 16.264 1.44975 11 1.44975Z" fill="#191919"/>
<path d="M11.1815 17.0708H11C7.33333 17.0708 5.66337 14.3526 5.33663 12.939C5.22772 12.5404 5.48185 12.1417 5.88119 12.0692C6.28053 11.9605 6.67987 12.2142 6.75248 12.6128C6.78878 12.7216 7.58746 15.6573 11.0363 15.6573H11.2178C14.6667 15.6573 15.4653 12.7578 15.5016 12.6128C15.6106 12.2142 16.0099 11.9967 16.3729 12.1054C16.7723 12.2142 16.9901 12.5766 16.9175 12.9753C16.4818 14.3888 14.8482 17.0708 11.1815 17.0708Z" fill="#191919"/>
<path d="M7.18812 10.1483C7.88987 10.1483 8.45875 9.58033 8.45875 8.87974C8.45875 8.17914 7.88987 7.6112 7.18812 7.6112C6.48637 7.6112 5.91749 8.17914 5.91749 8.87974C5.91749 9.58033 6.48637 10.1483 7.18812 10.1483Z" fill="#191919"/>
<path d="M14.703 10.1483C15.4047 10.1483 15.9736 9.58033 15.9736 8.87974C15.9736 8.17914 15.4047 7.6112 14.703 7.6112C14.0012 7.6112 13.4323 8.17914 13.4323 8.87974C13.4323 9.58033 14.0012 10.1483 14.703 10.1483Z" fill="#191919"/>
</svg>
