<svg width="37" height="47" viewBox="0 0 37 47" fill="none" xmlns="http://www.w3.org/2000/svg">
<g filter="url(#filter0_d_9_2)">
<path d="M26.3285 0.865234C25.3094 0.950519 24.3182 1.2414 23.4147 1.72031C22.5111 2.19923 21.714 2.85625 21.0713 3.65173C19.7925 5.24023 18.8906 7.09804 18.4334 9.0854C17.4489 12.8936 18.1176 17.3799 19.2322 21.1602C23.3284 19.6555 25.8269 15.2435 26.9601 12.9308C28.7435 9.26187 29.7466 1.56185 26.3285 0.911665" fill="#1D6B62"/>
<path d="M13.3539 25.7228C13.9617 24.7558 14.304 23.6457 14.3464 22.5043C14.3888 21.3629 14.1297 20.2305 13.5954 19.221C13.0449 18.2252 12.3014 17.3491 11.4083 16.6442C10.5152 15.9393 9.49035 15.4196 8.39389 15.1156C7.90504 14.9176 7.37855 14.83 6.85194 14.8589C6.32533 14.8878 5.81158 15.0325 5.34732 15.2828C4.95976 15.5858 4.65937 15.9861 4.47665 16.4429C4.29393 16.8997 4.2354 17.3968 4.30703 17.8835C4.46802 18.8572 4.88474 19.7708 5.51453 20.5307C7.53939 23.2243 9.99151 25.4628 13.3539 25.7043" fill="#1D6B62"/>
<path d="M12.9941 38.4272C13.0717 38.1686 13.1307 37.9047 13.1706 37.6377C13.2727 37.0711 13.412 36.3466 13.5699 35.4642C14.0923 33.077 14.2241 30.6209 13.9601 28.1915C13.6471 25.7417 12.685 23.42 11.1736 21.4667C10.7115 20.8884 10.1849 20.3649 9.60384 19.9063C9.3995 19.7391 9.22302 19.6369 9.11156 19.5533L8.92578 19.4512C9.69027 20.097 10.3902 20.8156 11.0157 21.5968C12.4387 23.5504 13.346 25.8313 13.6535 28.2286C13.9048 30.6332 13.8016 33.0618 13.347 35.4364C13.2077 36.3652 13.0963 37.099 13.0312 37.6191C12.9918 37.8866 12.9793 38.1573 12.9941 38.4272Z" fill="#924600"/>
<path d="M25.0682 6.61523C25.0005 6.71044 24.9444 6.81331 24.901 6.92174L24.4923 7.85057C24.1301 8.64936 23.6285 9.81042 23.0247 11.2594C21.808 14.1481 20.1825 18.1606 18.4921 22.6376C16.8016 27.1146 15.3619 31.1921 14.368 34.1644C13.8665 35.6505 13.4392 36.858 13.207 37.6939L12.9098 38.6228C12.869 38.7306 12.841 38.8428 12.8262 38.9572C12.886 38.8583 12.9328 38.7522 12.9655 38.6414L13.3092 37.7125C13.6157 36.8487 14.0429 35.6598 14.5538 34.2108C15.6034 31.2571 17.0709 27.1889 18.7614 22.7119C20.4519 18.2349 22.0402 14.2224 23.2105 11.3151C23.7864 9.88472 24.2508 8.7144 24.5945 7.86916L24.9567 6.94033C25.0059 6.83649 25.0433 6.72743 25.0682 6.61523Z" fill="#924600"/>
<path d="M17.8213 29.9887C19.034 27.911 20.7253 26.1528 22.7544 24.8603C24.7835 23.5679 27.0918 22.7786 29.4875 22.558C30.7042 22.4652 32.1718 22.6509 32.7198 23.7376C33.2678 24.8244 32.5619 26.1341 31.7352 27.035C29.991 28.8884 27.7379 30.185 25.259 30.7617C22.7801 31.3385 20.186 31.1697 17.8027 30.2766" fill="#1D6B62"/>
<path d="M27.6653 25.8706C27.4123 25.84 27.1566 25.84 26.9037 25.8706C26.5921 25.889 26.2819 25.9262 25.9748 25.982C25.5841 26.0397 25.1966 26.1172 24.8138 26.2142C24.3451 26.3203 23.883 26.4537 23.4298 26.6136C22.9052 26.783 22.3905 26.9815 21.8879 27.2081C19.5674 28.2476 17.5385 29.8426 15.9806 31.8522C15.6369 32.3259 15.3025 32.7811 15.0518 33.2176C14.801 33.6542 14.5595 34.0907 14.3551 34.4808C14.1508 34.8709 14.0207 35.2425 13.8814 35.5675C13.7635 35.8413 13.6672 36.1239 13.5935 36.4128C13.5019 36.6495 13.4365 36.8956 13.3984 37.1466C13.4635 37.1466 13.7421 36.1156 14.5409 34.5737C14.756 34.1519 14.9948 33.7425 15.2561 33.3477C15.5398 32.8874 15.8499 32.4439 16.1849 32.0194C17.7363 30.0596 19.7285 28.4938 21.9994 27.4496C22.4903 27.22 22.9925 27.0154 23.5041 26.8365C23.9481 26.6697 24.4008 26.5271 24.8602 26.4093C26.5786 25.9913 27.6653 25.9449 27.6653 25.8706Z" fill="#924600"/>
</g>
<defs>
<filter id="filter0_d_9_2" x="0" y="0" width="37" height="47" filterUnits="userSpaceOnUse" color-interpolation-filters="sRGB">
<feFlood flood-opacity="0" result="BackgroundImageFix"/>
<feColorMatrix in="SourceAlpha" type="matrix" values="0 0 0 0 0 0 0 0 0 0 0 0 0 0 0 0 0 0 127 0" result="hardAlpha"/>
<feOffset dy="4"/>
<feGaussianBlur stdDeviation="2"/>
<feComposite in2="hardAlpha" operator="out"/>
<feColorMatrix type="matrix" values="0 0 0 0 0 0 0 0 0 0 0 0 0 0 0 0 0 0 0.25 0"/>
<feBlend mode="normal" in2="BackgroundImageFix" result="effect1_dropShadow_9_2"/>
<feBlend mode="normal" in="SourceGraphic" in2="effect1_dropShadow_9_2" result="shape"/>
</filter>
</defs>
</svg>
