<svg width="29" height="39" viewBox="0 0 29 39" fill="none" xmlns="http://www.w3.org/2000/svg">
<path d="M22.3285 0.865234C21.3094 0.950519 20.3182 1.2414 19.4147 1.72031C18.5111 2.19923 17.714 2.85625 17.0713 3.65173C15.7925 5.24023 14.8906 7.09804 14.4334 9.0854C13.4489 12.8936 14.1176 17.3799 15.2322 21.1602C19.3284 19.6555 21.8269 15.2435 22.9601 12.9308C24.7435 9.26187 25.7466 1.56185 22.3285 0.911665" fill="#BF8D5C"/>
<path d="M9.35388 25.7228C9.96168 24.7558 10.304 23.6457 10.3464 22.5043C10.3888 21.3629 10.1297 20.2305 9.59536 19.221C9.04495 18.2252 8.30142 17.3491 7.40829 16.6442C6.51515 15.9393 5.49035 15.4196 4.39389 15.1156C3.90504 14.9176 3.37855 14.83 2.85194 14.8589C2.32533 14.8878 1.81158 15.0325 1.34732 15.2828C0.959764 15.5858 0.659375 15.9861 0.476655 16.4429C0.293935 16.8997 0.235403 17.3968 0.307035 17.8835C0.468024 18.8572 0.884736 19.7708 1.51453 20.5307C3.53939 23.2243 5.99151 25.4628 9.35388 25.7043" fill="#BF8D5C"/>
<path d="M8.99407 38.4272C9.07173 38.1686 9.13071 37.9047 9.17055 37.6377C9.27272 37.0711 9.41204 36.3466 9.56994 35.4642C10.0923 33.077 10.2241 30.6209 9.96006 28.1915C9.64705 25.7417 8.68503 23.42 7.17357 21.4667C6.71154 20.8884 6.18487 20.3649 5.60384 19.9063C5.3995 19.7391 5.22302 19.6369 5.11156 19.5533L4.92578 19.4512C5.69027 20.097 6.39018 20.8156 7.01565 21.5968C8.43871 23.5504 9.34599 25.8313 9.65353 28.2286C9.90484 30.6332 9.80158 33.0618 9.34703 35.4364C9.20771 36.3652 9.09625 37.099 9.03123 37.6191C8.99178 37.8866 8.97933 38.1573 8.99407 38.4272Z" fill="#263238"/>
<path d="M21.0682 6.61523C21.0005 6.71044 20.9444 6.81331 20.901 6.92174L20.4923 7.85057C20.1301 8.64936 19.6285 9.81042 19.0247 11.2594C17.808 14.1481 16.1825 18.1606 14.4921 22.6376C12.8016 27.1146 11.3619 31.1921 10.368 34.1644C9.86647 35.6505 9.4392 36.858 9.207 37.6939L8.90976 38.6228C8.86902 38.7306 8.84097 38.8428 8.82617 38.9572C8.88597 38.8583 8.93279 38.7522 8.96549 38.6414L9.30915 37.7125C9.61567 36.8487 10.0429 35.6598 10.5538 34.2108C11.6034 31.2571 13.0709 27.1889 14.7614 22.7119C16.4519 18.2349 18.0402 14.2224 19.2105 11.3151C19.7864 9.88472 20.2508 8.7144 20.5945 7.86916L20.9567 6.94033C21.0059 6.83649 21.0433 6.72743 21.0682 6.61523Z" fill="#263238"/>
<path d="M13.8213 29.9887C15.034 27.911 16.7253 26.1528 18.7544 24.8603C20.7835 23.5679 23.0918 22.7786 25.4875 22.558C26.7042 22.4652 28.1718 22.6509 28.7198 23.7376C29.2678 24.8244 28.5619 26.1341 27.7352 27.035C25.991 28.8884 23.7379 30.185 21.259 30.7617C18.7801 31.3385 16.186 31.1697 13.8027 30.2766" fill="#BF8D5C"/>
<path d="M23.6653 25.8706C23.4123 25.84 23.1566 25.84 22.9037 25.8706C22.5921 25.889 22.2819 25.9262 21.9748 25.982C21.5841 26.0397 21.1966 26.1172 20.8138 26.2142C20.3451 26.3203 19.883 26.4537 19.4298 26.6136C18.9052 26.783 18.3905 26.9815 17.8879 27.2081C15.5674 28.2476 13.5385 29.8426 11.9806 31.8522C11.6369 32.3259 11.3025 32.7811 11.0518 33.2176C10.801 33.6542 10.5595 34.0907 10.3551 34.4808C10.1508 34.8709 10.0207 35.2425 9.88142 35.5675C9.7635 35.8413 9.66723 36.1239 9.59348 36.4128C9.50192 36.6495 9.43652 36.8956 9.39844 37.1466C9.46346 37.1466 9.74212 36.1156 10.5409 34.5737C10.756 34.1519 10.9948 33.7425 11.2561 33.3477C11.5398 32.8874 11.8499 32.4439 12.1849 32.0194C13.7363 30.0596 15.7285 28.4938 17.9994 27.4496C18.4903 27.22 18.9925 27.0154 19.5041 26.8365C19.9481 26.6697 20.4008 26.5271 20.8602 26.4093C22.5786 25.9913 23.6653 25.9449 23.6653 25.8706Z" fill="#263238"/>
</svg>
